<?xml version="1.0" encoding="utf-8"?>
<!-- Generator: Adobe Illustrator 24.3.0, SVG Export Plug-In . SVG Version: 6.00 Build 0)  -->
<svg version="1.1" id="Layer_1" xmlns="http://www.w3.org/2000/svg" xmlns:xlink="http://www.w3.org/1999/xlink" x="0px" y="0px"
	 viewBox="0 0 1892.1 1181.6" style="enable-background:new 0 0 1892.1 1181.6;" xml:space="preserve">
<style type="text/css">
	.st0{fill:#F8648C;}
	.st1{fill:#242A55;}
	.st2{fill:#4F65F1;}
</style>
<path class="st0" d="M527.5,927.9c-134.1,0-205.3-80.3-272-306.9l-33.8-115c-7.9-26.7,4.1-51.2,28.4-58.4l147.3-43.4
	c3.9-1.2,8-1.8,12.1-1.8c19,0,34.9,13.8,41.4,36.1l27.9,94.8c22.1,75.2,43.9,89.4,76.3,89.4c16.6,0,37.9-4.2,71.3-14l304.7-89.7
	c50.8-15,96-22.2,138-22.2c83.6,0,156.4,29.8,222.7,91.2l2.7,2.5l-0.2,3.7l-8.7,169.2l-73,52.6c0,0-67.5-26.5-103.9-26.5
	c-28.1,0-58.8,5-93.7,15.2l-304.7,89.6C633,917.3,574.9,927.9,527.5,927.9z"/>
<path class="st1" d="M527.4,919.9c50.1,0,109.3-12,180.8-33.1l304.7-89.7c35.2-10.3,66.7-15.6,95.9-15.6
	c39.9,0,111.1,29.3,111.1,29.3l66.4-217c-66.9-61.9-137.5-89.1-217.3-89.1c-42.4,0-87.4,7.7-135.8,21.9l-304.7,89.7
	c-30.2,8.9-54.1,14.4-73.6,14.4c-41.7,0-63.3-25-84-95.2l-27.9-94.9c-5.4-18.5-18-30.3-33.8-30.3c-3.3,0-6.6,0.5-9.8,1.5
	l-147.3,43.3c-20.2,5.9-29.6,26.2-23,48.4l33.9,115C327.6,837.6,396.5,919.9,527.4,919.9 M527.5,935.9
	c-136.8,0-212.6-84.7-279.7-312.7l-33.9-115c-4.3-14.5-3.4-29.3,2.4-41.6c6.1-13,17.6-22.7,31.5-26.6l147.3-43.3
	c4.6-1.4,9.5-2.1,14.3-2.1c22.7,0,41.5,16,49.1,41.8l27.9,94.8c20.8,70.8,39.4,83.7,68.6,83.7c15.8,0,36.4-4.1,69-13.7l304.8-89.7
	c51.6-15.2,97.5-22.6,140.3-22.6c85.7,0,160.3,30.5,228.2,93.3l5.5,5.1l-0.4,7.5l-90.7,230c0,0-66.9-27.1-102.9-27.1
	c-27.4,0-57.3,4.9-91.4,14.9l-304.8,89.6C634.5,925.2,575.7,935.9,527.5,935.9L527.5,935.9L527.5,935.9z"/>
<path class="st2" d="M321.3,1173.6L321.3,1173.6c-107.1,0-180.9-73.6-263.4-262.6L12.6,807.2c-5.1-11.7-6-24.1-2.5-34.8
	c3.7-11.2,12-20.2,22.8-24.7l135.4-59.1c5-2.2,10.5-3.4,16-3.5c16.6,0,31.4,11.2,39.5,29.9l37.2,85.3c19.7,45,36.6,67.1,56.7,73.9
	c9.8,3.3,17.8,11.2,26.2,19.6c11.1,11,22.5,22.3,37.7,22.3c5.5-0.1,10.9-1.3,16-3.6l294-180.8l0.5-0.3l0.5-0.2
	c61.1-26.7,115.8-39.6,167.3-39.6c61.4,0,119,18.5,175.6,56.5c19.3-122,88.2-202.8,221.7-261.1l280-122.2
	c40.4-17.6,67.4-32.7,77.2-53.4c9.4-19.8,5-46.7-15.2-93l-38-87.2c-5.2-11.9-6.4-23.7-3.5-34.1c3.1-11.1,10.9-19.8,22-24.7
	L1715,13.4c5.3-2.3,11-3.6,16.8-3.6c17.2,0,32.8,11.2,40.6,29.2l46.1,105.7c63.5,145.6,79.5,237.6,53.5,307.8
	c-24.9,67.3-88.7,118.1-220.1,175.5l-280,122.2c-93.8,41-137.6,94.9-156.1,192.4l-0.8,4.2l-3.9,1.7l-148.4,64.8l-3.9,1.7l-3.6-2.2
	c-48.9-30.7-92.1-45-135.8-45c-34.2,0-70.9,8.8-112.2,26.8l-281.9,123C436.6,1156.3,373.6,1173.6,321.3,1173.6z"/>
<path class="st1" d="M321.3,1165.6c55.1,0,119.9-20.1,201-55.4l281.9-123c42.3-18.5,79.7-27.4,115.4-27.4
	c47.3,0,91.6,15.8,140.1,46.2l148.4-64.8c18.8-98.7,62.5-155.3,160.8-198.2l280.1-122.2c237.4-103.6,283.8-194.5,162.4-472.7
	l-46.2-105.8c-6.7-15.4-19.5-24.4-33.3-24.4c-4.7,0-9.3,1-13.6,2.9l-135.4,59.1c-18.6,8.1-23.2,27.8-14.3,48.2l38,87.2
	c41.3,94.6,21,118.9-66.2,157l-280,122.2c-128,55.9-201.8,134.5-218.8,267.7c-59.6-42.7-119.1-62.4-181.7-62.4
	c-52,0-106.1,13.6-164.1,39l-294.4,181c-6.2,2.8-12.9,4.4-19.6,4.5c-30.6,0-46.2-35.5-66.5-42.4c-23.3-7.9-41.2-31.8-61.5-78.3
	l-37.2-85.3c-6.8-15.6-18.7-25.1-32.2-25.1c-4.4,0-8.8,1-12.9,2.8L36.1,755c-18.5,8.1-25.1,28.6-16.1,49l45.3,103.8
	C145.3,1091,215.1,1165.6,321.3,1165.6 M321.3,1181.6L321.3,1181.6c-110.9,0-186.8-75-270.7-267.4L5.3,810.4
	c-5.9-13.5-6.9-27.9-2.8-40.5c4.4-13.3,14.3-24.1,27.2-29.6l135.4-59.1c6.1-2.7,12.6-4.1,19.2-4.2c19.9,0,37.4,13,46.9,34.7
	l37.2,85.3c18.7,42.8,34.2,63.6,51.9,69.5c11.5,3.9,20.6,12.8,29.3,21.5c10.4,10.3,20.2,20,32,20c4.3-0.1,8.4-1,12.3-2.7L687.4,725
	l1-0.6l1-0.5c62.1-27.1,117.9-40.3,170.5-40.3c59.4,0,115.1,16.8,169.8,51.2c22.3-118.2,92.4-197.5,224.3-255.1l280-122.2
	c81.1-35.4,95-51,57.9-135.9l-38-87.2c-5.9-13.6-7.3-27.2-3.9-39.4c3.8-13.4,13.1-24,26.4-29.8l135.4-59.1c6.3-2.8,13.1-4.2,20-4.3
	c20.4,0,38.8,13,48,34l46.2,105.7c64.4,147.6,80.5,241.5,53.7,313.8c-25.8,69.5-90.8,121.7-224.4,180l-280.1,122.2
	c-92.2,40.2-133.2,90.8-151.4,186.5l-1.6,8.3l-7.8,3.4l-148.4,64.8l-7.7,3.4l-7.2-4.5c-47.6-29.8-89.4-43.8-131.6-43.8
	c-33.1,0-68.8,8.5-109,26.1l-281.9,123C438.7,1164.1,374.8,1181.6,321.3,1181.6L321.3,1181.6z"/>
</svg>
