<svg xmlns="http://www.w3.org/2000/svg" viewBox="0 0 3833 2362"><defs><style>.a{fill:#242a55;}</style></defs><title>blob-back</title><path class="a" d="M631.55,613.52,0,1328.07V2362H3678.25c41.78-235.83,34.65-536.56-12.74-922.48l-1.48-10.59a1376.18,1376.18,0,0,0-502.15-883.39h0C2878.7,299.38,2634.28,118.47,2414,0H1291.76C1084.51,131.38,871.69,337.26,631.55,613.52ZM2106.14,1205.9c101.62,0,212.64,56.14,358.74,174.73,94.61,82,145.93,154.32,145.93,154.32,150.83,189.85,50.87,456.47-362.59,507.24L1085,2185l583-670.61h0C1841.78,1314.38,1964.86,1205.89,2106.14,1205.9Z"/></svg>