<svg xmlns="http://www.w3.org/2000/svg" viewBox="0 0 100 100"><defs><style>.a{fill:#242a55;}</style></defs><path class="a" d="M91,40V15.82a2.17,2.17,0,0,0-1.4-2h-.1a2,2,0,0,0-2.3.6l-8.4,9.2a7.13,7.13,0,0,1-5,2.3,6.92,6.92,0,0,1-5.1-1.9l-.5-.5-7.9-8.7a1.75,1.75,0,0,0-1.4-.7,2.45,2.45,0,0,0-1.6.6,2,2,0,0,0-.7,1.6v23.8a17.71,17.71,0,0,0,1.2,6.4l.1.3H44.05a24.39,24.39,0,0,0-24.2,24.4,19.83,19.83,0,0,0,.3,3.5l.1.4-.4-.1a8.42,8.42,0,0,1-3.7-2.5,10.76,10.76,0,0,1-2.7-7.4V48.82a6.79,6.79,0,0,1,6.7-6.8,11.14,11.14,0,0,0,11.1-11.1v-6.6a2.2,2.2,0,1,0-4.4,0v6.6a6.79,6.79,0,0,1-6.7,6.8,11.14,11.14,0,0,0-11.1,11.1v16.3A15,15,0,0,0,13,75.52a13.44,13.44,0,0,0,8.4,4.3h.2l.1.1a24.52,24.52,0,0,0,22.6,15.7h37.8a2.22,2.22,0,0,0,2.2-2.2v-2.3a10.29,10.29,0,0,0-8-10.1h-.2V72l.1-.1c5.6-5.3,8.4-11.3,8.6-18.2v-.1l.1-.1A17.87,17.87,0,0,0,91,40Zm-11.1,16.7c-.8,4.6-3.3,8.8-7.4,12.5h0l-.3.2a2,2,0,0,0-.7,1.6v11.9a2.22,2.22,0,0,0,2.2,2.2h.2a6,6,0,0,1,5.9,5.8v.3h-22V73.52a13.34,13.34,0,0,0-13.2-13.3,1.8,1.8,0,0,0-1.5.7,2.2,2.2,0,0,0-.6,1.5,2.11,2.11,0,0,0,2.1,2.1,8.86,8.86,0,0,1,8.8,9v17.7h-9.3a20,20,0,0,1,0-40h16.5l.1.1a17.2,17.2,0,0,0,18.9,5.2l.4-.1Zm-6.1-3.6a12.93,12.93,0,0,1-10.4-5.3c0-.1-.1-.1-.1-.2a12.73,12.73,0,0,1-2.4-7.6V21.92l4.1,4.5a11.65,11.65,0,0,0,7.9,3.8,11.45,11.45,0,0,0,8.3-2.9,6,6,0,0,0,.8-.8l4.6-5.1v18.9A12.89,12.89,0,0,1,73.75,53.12Z"/><path class="a" d="M69.7,35.92a1.89,1.89,0,0,0-1.2-1.1,1.79,1.79,0,0,0-1.6.1l-.1-.2.1.2a2.16,2.16,0,0,0-1,2.8,2.13,2.13,0,0,0,2.8,1A2.18,2.18,0,0,0,69.7,35.92Z"/><path class="a" d="M80.1,34.72a2.1,2.1,0,1,0,2.1,2.1A2.11,2.11,0,0,0,80.1,34.72Z"/></svg>