<svg xmlns="http://www.w3.org/2000/svg" viewBox="0 0 100 100"><defs><style>.a{fill:#242a55;}</style></defs><path class="a" d="M95.3,24.9V15.4a2.22,2.22,0,0,0-2.2-2.2H86.8a3.74,3.74,0,0,1-2.5-1l-7-7a2.2,2.2,0,0,0-1.5-.6H61.4A10.82,10.82,0,0,0,50.6,15.4a2,2,0,0,0,.3,1.1l2.6,4.3v.1A26.78,26.78,0,0,1,41.7,42.4l-6.4,4.4A31,31,0,0,0,21.8,72.4v7.1H12.5a8,8,0,0,0,0,15.9h72a2.22,2.22,0,0,0,2.2-2.2V87.4a8,8,0,0,0-5.4-7.5l-.3-.1V62.2l.1-.1a17.69,17.69,0,0,0,0-18.3l-.2-.2v-.1A6.63,6.63,0,0,1,84,37.9l6-3.6A11,11,0,0,0,95.3,24.9ZM21.8,91H12.5A3.74,3.74,0,0,1,10,90a3.47,3.47,0,0,1-1-2.5H9a3.59,3.59,0,0,1,3.6-3.6h9.3V91ZM90.9,24.9a6.46,6.46,0,0,1-3.1,5.5l-6,3.6a11.21,11.21,0,0,0-5.3,10.1,1.59,1.59,0,0,0,.4,1.2,13.46,13.46,0,0,1,0,14.9,2.84,2.84,0,0,0-.4,1.2V81.6a2.22,2.22,0,0,0,2.2,2.2,3.59,3.59,0,0,1,3.6,3.6V91H69.4V64.4a2.22,2.22,0,0,0-2.2-2.2h0a2,2,0,0,0-1.5.6,3,3,0,0,0-.7,1.5V83.1l-.8-.6a14.16,14.16,0,0,0-6.1-2.8l-.3-.1-.1-.3C56.1,70,47.4,68,44.2,68a1.8,1.8,0,0,0-1.5.7,2.27,2.27,0,0,0-.6,1.6,2.22,2.22,0,0,0,2.2,2.2,9.35,9.35,0,0,1,9.3,9.3A2.22,2.22,0,0,0,55.8,84a9.33,9.33,0,0,1,8.9,6.5l.2.7H26.2V72.4a26.6,26.6,0,0,1,11.6-22L44.2,46A30.91,30.91,0,0,0,56.8,28l.3-1.2,2.4,4a2.45,2.45,0,0,0,1.8,1.1h.1a2.27,2.27,0,0,0,1.8-.9l8.6-11.4a2.21,2.21,0,0,0-.3-3.1,2.35,2.35,0,0,0-1.6-.5,2.75,2.75,0,0,0-1.5.8l-6.8,9L55,14.7v-.2a6.56,6.56,0,0,1,6.4-5.7H74.9l6.3,6.3a7.87,7.87,0,0,0,5.6,2.3h4.1Z"/></svg>