<svg xmlns="http://www.w3.org/2000/svg" viewBox="0 0 685.6 780.4"><defs><style>.a{fill:#5eebc4;}.b{fill:#242a55;}</style></defs><path class="a" d="M451.17,772.4c-14.82,0-24.85-6.56-34.56-12.91L48.44,507.93c-21.62-14.16-36.76-28.61-39.91-52.88s7.79-42.11,25.2-61.44l291.52-337c9.05-10.05,18.3-20.32,37.11-22.77L560,8.21A25.37,25.37,0,0,1,563.2,8c12.84,0,23.43,9.83,25.19,23.38,1,7.84-1.64,15.94-7.91,24.08L260.17,422.38l403,272.7c8.53,6.55,13.18,13.7,14.19,21.54,1.93,14.82-7.55,27.84-21.56,29.66L458.17,771.94A55.88,55.88,0,0,1,451.17,772.4Z"/><path class="b" d="M451.17,764.4a46.74,46.74,0,0,0,6-.4l197.61-25.65c10-1.29,16-10.75,14.66-20.7q-1.11-8.52-10.74-15.95L248.19,423.94l326-373.36q7.43-9.64,6.32-18.17C579.26,23.2,572.14,16,563.2,16a18.18,18.18,0,0,0-2.2.14L363.39,41.8c-15.64,2-23.25,10.24-32.09,20.06L39.67,399C22,418.61,13.88,434.11,16.46,454s14.38,32.83,36.5,47.3L421,752.79c9.57,6.27,17.95,11.61,30.18,11.61m0,16c-17.2,0-28.75-7.55-38.94-14.22L43.93,514.53C23.77,501.34,4.35,485,.59,456.08s10.85-49.68,27.19-67.82L319.2,51.39c9.2-10.22,20.38-22.64,42.13-25.46L558.94.28A32.53,32.53,0,0,1,563.2,0c16.64,0,30.88,13.05,33.13,30.35,1.3,10-1.9,20.11-9.51,30L272.15,420.83,667.63,688.45c10.68,8.18,16.35,17.12,17.65,27.14,2.5,19.26-10,36.23-28.47,38.63L459.2,779.87A63.36,63.36,0,0,1,451.17,780.4Z"/></svg>