<?xml version="1.0" encoding="utf-8"?>
<!-- Generator: Adobe Illustrator 25.2.1, SVG Export Plug-In . SVG Version: 6.00 Build 0)  -->
<svg version="1.1" id="Layer_1" xmlns="http://www.w3.org/2000/svg" xmlns:xlink="http://www.w3.org/1999/xlink" x="0px" y="0px"
	 viewBox="0 0 273.4 165.1" style="enable-background:new 0 0 273.4 165.1;" xml:space="preserve">
<style type="text/css">
	.st0{fill:#F8648C;}
	.st1{fill:#181C38;}
	.st2{fill:none;}
</style>
<g>
	<path class="st0" d="M261.5,145.8l-17.2-97.3c-4-22.9-18.3-38.4-37.2-40.5c-4.1-0.5-8.2-0.3-12.2,0.5L43.7,35.4
		C18.8,39.8,4.1,62.8,9,90.3l13.2,74.8h243.1C264,159.1,262.8,152.7,261.5,145.8z"/>
	<path class="st1" d="M16.7,88.6C12.6,65.8,24.1,46.7,44.9,43l151.2-26.7c3.3-0.6,6.6-0.8,9.9-0.4c15.7,1.7,26.9,14.9,30.2,33.9
		l17.2,97.4c1.1,6.3,2.3,12.3,3.5,17.9h16.4c-1.4-6.3-2.8-13.1-4.1-20.5l-17.2-97.3c-4.7-26.5-21.6-44.5-44.2-47
		c-4.8-0.5-9.7-0.4-14.4,0.5L42.3,27.5C28,29.9,15.5,38.3,8,50.5C0.9,62.1-1.6,76.7,1,91.6l13.1,73.5h16.2L16.7,88.6z"/>
</g>
<rect x="-82.8" y="-46" class="st2" width="443" height="252.7"/>
</svg>
