<?xml version="1.0" encoding="utf-8"?>
<!-- Generator: Adobe Illustrator 24.3.0, SVG Export Plug-In . SVG Version: 6.00 Build 0)  -->
<svg version="1.1" id="Layer_1" xmlns="http://www.w3.org/2000/svg" xmlns:xlink="http://www.w3.org/1999/xlink" x="0px" y="0px"
	 viewBox="0 0 1116 476.3" style="enable-background:new 0 0 1116 476.3;" xml:space="preserve">
<style type="text/css">
	.st0{fill:#5AEDC5;}
	.st1{fill:#F8F7F8;}
</style>
<g>
	<path class="st0" d="M205.7,150.6c-30.4,0-55.1,24.6-55.1,55v0.1v82.4h24.6v-82.7c0.8-16.5,14.1-29.6,30.6-30.2h44.7v-24.6H205.7
		L205.7,150.6z"/>
	<polygon class="st0" points="266.4,150.6 263.5,150.6 263.5,153.4 263.5,172.3 263.5,175.2 266.4,175.2 285.2,175.2 288.1,175.2 
		288.1,172.3 288.1,153.4 288.1,150.6 285.2,150.6 	"/>
	<polygon class="st0" points="304,225.8 301.1,225.8 301.1,228.7 301.1,247.5 301.1,250.4 304,250.4 322.8,250.4 325.7,250.4 
		325.7,247.5 325.7,228.7 325.7,225.8 322.8,225.8 	"/>
	<polygon class="st0" points="322.8,150.6 304,150.6 301.1,150.6 301.1,153.4 301.1,172.3 301.1,175.2 304,175.2 322.8,175.2 
		325.7,175.2 325.7,172.3 325.7,153.4 325.7,150.6 	"/>
	<polygon class="st0" points="304,188.2 301.1,188.2 301.1,191.1 301.1,209.9 301.1,212.8 304,212.8 322.8,212.8 325.7,212.8 
		325.7,209.9 325.7,191.1 325.7,188.2 322.8,188.2 	"/>
	<polygon class="st0" points="304,263.5 301.1,263.5 301.1,266.4 301.1,285.2 301.1,288.1 304,288.1 322.8,288.1 325.7,288.1 
		325.7,285.2 325.7,266.4 325.7,263.5 322.8,263.5 	"/>
	<polygon class="st0" points="304,301.1 301.1,301.1 301.1,304 301.1,322.8 301.1,325.7 304,325.7 322.8,325.7 325.7,325.7 
		325.7,322.8 325.7,304 325.7,301.1 322.8,301.1 	"/>
	<polygon class="st0" points="266.4,301.1 263.5,301.1 263.5,304 263.5,322.8 263.5,325.7 266.4,325.7 285.2,325.7 288.1,325.7 
		288.1,322.8 288.1,304 288.1,301.1 285.2,301.1 	"/>
	<polygon class="st0" points="228.7,301.1 225.8,301.1 225.8,304 225.8,322.8 225.8,325.7 228.7,325.7 247.5,325.7 250.4,325.7 
		250.4,322.8 250.4,304 250.4,301.1 247.5,301.1 	"/>
	<polygon class="st0" points="191.1,301.1 188.2,301.1 188.2,304 188.2,322.8 188.2,325.7 191.1,325.7 209.9,325.7 212.8,325.7 
		212.8,322.8 212.8,304 212.8,301.1 209.9,301.1 	"/>
	<polygon class="st0" points="153.4,301.1 150.6,301.1 150.6,304 150.6,322.8 150.6,325.7 153.4,325.7 172.3,325.7 175.2,325.7 
		175.2,322.8 175.2,304 175.2,301.1 172.3,301.1 	"/>
	<path class="st0" d="M205.7,150.6c-30.4,0-55.1,24.6-55.1,55v0.1v82.4h24.6v-82.7c0.8-16.5,14.1-29.6,30.6-30.2h44.7v-24.6H205.7
		L205.7,150.6z"/>
	<polygon class="st0" points="266.4,150.6 263.5,150.6 263.5,153.4 263.5,172.3 263.5,175.2 266.4,175.2 285.2,175.2 288.1,175.2 
		288.1,172.3 288.1,153.4 288.1,150.6 285.2,150.6 	"/>
	<polygon class="st0" points="304,225.8 301.1,225.8 301.1,228.7 301.1,247.5 301.1,250.4 304,250.4 322.8,250.4 325.7,250.4 
		325.7,247.5 325.7,228.7 325.7,225.8 322.8,225.8 	"/>
	<polygon class="st0" points="322.8,150.6 304,150.6 301.1,150.6 301.1,153.4 301.1,172.3 301.1,175.2 304,175.2 322.8,175.2 
		325.7,175.2 325.7,172.3 325.7,153.4 325.7,150.6 	"/>
	<polygon class="st0" points="304,188.2 301.1,188.2 301.1,191.1 301.1,209.9 301.1,212.8 304,212.8 322.8,212.8 325.7,212.8 
		325.7,209.9 325.7,191.1 325.7,188.2 322.8,188.2 	"/>
	<polygon class="st0" points="304,263.5 301.1,263.5 301.1,266.4 301.1,285.2 301.1,288.1 304,288.1 322.8,288.1 325.7,288.1 
		325.7,285.2 325.7,266.4 325.7,263.5 322.8,263.5 	"/>
	<polygon class="st0" points="304,301.1 301.1,301.1 301.1,304 301.1,322.8 301.1,325.7 304,325.7 322.8,325.7 325.7,325.7 
		325.7,322.8 325.7,304 325.7,301.1 322.8,301.1 	"/>
	<polygon class="st0" points="266.4,301.1 263.5,301.1 263.5,304 263.5,322.8 263.5,325.7 266.4,325.7 285.2,325.7 288.1,325.7 
		288.1,322.8 288.1,304 288.1,301.1 285.2,301.1 	"/>
	<polygon class="st0" points="228.7,301.1 225.8,301.1 225.8,304 225.8,322.8 225.8,325.7 228.7,325.7 247.5,325.7 250.4,325.7 
		250.4,322.8 250.4,304 250.4,301.1 247.5,301.1 	"/>
	<polygon class="st0" points="191.1,301.1 188.2,301.1 188.2,304 188.2,322.8 188.2,325.7 191.1,325.7 209.9,325.7 212.8,325.7 
		212.8,322.8 212.8,304 212.8,301.1 209.9,301.1 	"/>
	<polygon class="st0" points="153.4,301.1 150.6,301.1 150.6,304 150.6,322.8 150.6,325.7 153.4,325.7 172.3,325.7 175.2,325.7 
		175.2,322.8 175.2,304 175.2,301.1 172.3,301.1 	"/>
</g>
<g>
	<path class="st1" d="M437.8,220.7c-8.3,0-16.2,2.4-24.1,7.4l0-1.2c0-1.3-0.5-2.5-1.4-3.5c-0.9-0.9-2.1-1.5-3.5-1.5h-8.5l-0.2,0
		c-1.3,0.1-2.5,0.6-3.4,1.6c-0.9,1-1.3,2.2-1.3,3.5v92.4c0,2.7,2.1,4.9,4.9,5.1l8.9,0c2.7-0.1,4.9-2.3,5-5.1v-75.1
		c8.3-4.9,15.4-7,23.6-7c3.3,0,5.2-1.7,5.2-4.5v-7.4C443.1,222.4,441.2,220.7,437.8,220.7z"/>
	<path class="st1" d="M497.5,220.7c-26.1,0-41.6,16.4-41.6,43.8v16.3c0,39.1,26.7,44.9,42.5,44.9c0.2,0,0.5,0,0.7,0
		c10.7,0,21.4-1,31.9-3.1c3.4-0.6,4.8-2.3,4.8-5.6v-6.2c0-2.4-1.7-4-4.3-4h-0.9l-0.2,0c-7.7,1.2-20.8,2-32,2
		c-16.6,0-23.7-8.4-23.7-28.1v-1.1h59.2c1.3,0,2.5-0.5,3.4-1.3c1-1,1.5-2.4,1.5-4.1v-9.7C538.8,236.7,523.7,220.7,497.5,220.7z
		 M519.8,264.5v0.2h-45.1v-0.2c0-18.2,7.5-27,22.8-27C513.1,237.5,519.8,245.6,519.8,264.5z"/>
	<path class="st1" d="M609.9,220.7c-9.7,0-17.5,2.1-27.4,7.3l0-1.1c0-2.7-2.2-4.9-4.9-5l-9.1,0l-0.1,0c-1.3,0.1-2.5,0.6-3.4,1.6
		c-0.9,1-1.3,2.2-1.3,3.5v92.4c0,2.7,2.1,4.9,4.9,5.1l8.9,0c2.7-0.1,4.9-2.3,5-5.1v-75.6c8.8-4.3,16.5-6.5,23-6.5
		c11.7,0,18.5,3.7,18.5,22.5v59.6c0,2.8,2.3,5,5.1,5h8.7h0c1.4,0,2.6-0.5,3.6-1.5c1-1,1.5-2.2,1.5-3.6v-59.6
		C642.9,233.8,631.8,220.7,609.9,220.7z"/>
	<path class="st1" d="M746.9,190.1c0-2.6-2.1-4.7-4.7-4.8H733c-2.7,0-4.9,2.2-4.9,4.9v32c-6.5-1-13.2-1.5-19.8-1.6
		c-26.8,0-40.9,15.8-40.9,45.8v13c0,29.8,14.5,46.2,40.9,46.2c0.2,0,0.5,0,0.7,0c11,0,22.1-1,32.9-3.1c4.2-0.7,5-2.7,4.9-5.6
		l0-126.7L746.9,190.1z M728.1,238.5v69.4c-6,0.5-14.1,1-19.8,1c-15.7,0-22.1-8.5-22.1-29.4v-13c0-20.3,6.6-29,22.1-29
		C714.4,237.5,722.5,237.7,728.1,238.5z"/>
	<path class="st1" d="M813.2,220.7c-26.1,0-41.6,16.4-41.6,43.8v16.3c0,39.1,26.7,44.9,42.5,44.9c0.2,0,0.5,0,0.7,0
		c10.7,0,21.4-1,31.9-3.1c3.4-0.6,4.8-2.3,4.8-5.6v-6.2c0-2.4-1.7-4-4.3-4h-1l-0.2,0c-7.7,1.2-20.8,2-32,2
		c-16.6,0-23.7-8.4-23.7-28.1v-1.1h59.3c1.3,0,2.5-0.5,3.4-1.3c1-1,1.5-2.4,1.5-4.1v-9.7C854.4,236.7,839.4,220.7,813.2,220.7z
		 M835.5,264.5v0.2h-45.1v-0.2c0-18.2,7.5-27,22.8-27C828.8,237.5,835.5,245.6,835.5,264.5z"/>
	<path class="st1" d="M921.8,220.7c-8.3,0-16.3,2.4-24.1,7.4v-1.1c0-0.1,0-0.1,0-0.2c0-1.3-0.5-2.5-1.4-3.5
		c-0.9-0.9-2.1-1.5-3.5-1.5l-8.7,0c-1.3,0.1-2.5,0.6-3.4,1.6c-0.9,1-1.4,2.2-1.3,3.5v92.4c0,2.7,2.1,4.9,4.9,5.1l8.9,0
		c2.7-0.1,4.9-2.3,5-5.1v-75.1c8.3-4.9,15.4-7,23.6-7c4.7,0,5.2-3.1,5.3-4.5v-7.4C927,222.4,925.1,220.7,921.8,220.7z"/>
</g>
</svg>
