<?xml version="1.0" encoding="utf-8"?>
<!-- Generator: Adobe Illustrator 24.3.0, SVG Export Plug-In . SVG Version: 6.00 Build 0)  -->
<svg version="1.1" id="Layer_1" xmlns="http://www.w3.org/2000/svg" xmlns:xlink="http://www.w3.org/1999/xlink" x="0px" y="0px"
	 viewBox="0 0 1116 476.3" style="enable-background:new 0 0 1116 476.3;" xml:space="preserve">
<style type="text/css">
	.st0{fill:#F8F7F8;}
	.st1{fill:#5AEDC5;}
</style>
<g>
	<path class="st0" d="M416.1,321.3v-75l0.5-0.3c8.8-4.7,16.9-6.8,26-6.8c1.5-0.1,2.7-1.2,2.8-2.8v-13.2c0-1.5-1.2-2.7-2.7-2.7h-0.1
		c-9.2,0-18.4,3.1-25.7,8.7l-1.6,1.2v-5.9c0-1.5-1.2-2.7-2.7-2.7h-16.1c-1.5,0-2.7,1.2-2.7,2.7v96.8c0,1.6,1.2,2.8,2.7,2.9h17
		C414.8,324.2,416,322.9,416.1,321.3z"/>
	<path class="st0" d="M542.7,266.5c0-28.4-16.5-46-43-46c-27.2,0-43.4,17.2-43.4,46v13.7c0,43.2,36.5,45.4,43.8,45.4
		c17,0,24.3-1,35.7-3.1c2.7-0.4,3.1-1.2,3.1-3.8v-12.2c0-1.2-0.8-1.8-2.3-1.8H536c-11.3,1.2-22.7,1.8-34,1.9
		c-20.9,0-23.2-17.1-23.2-24.5v-1.6h61.3c0.9,0,1.5-0.2,1.9-0.6c0.5-0.5,0.8-1.5,0.7-3V266.5z M520.2,265H479v-1.7
		c0-14.5,8.2-23.8,20.8-23.8c12.4,0,20.4,9.3,20.4,23.8V265z"/>
	<path class="st0" d="M629.4,324.2h16.9c1.6-0.1,2.8-1.3,2.8-2.9V261c0-21-3.8-40.4-31-40.4c-12,0-18.9,2-29.5,8.7l-1.5,1v-5.7
		c0-1.5-1.2-2.7-2.7-2.7h-16.1c-1.5,0-2.7,1.2-2.7,2.7v96.8c0,1.6,1.2,2.8,2.7,2.9h17c1.5-0.1,2.7-1.4,2.7-2.9v-75l0.5-0.3
		c9-4.7,15.6-6.8,21.4-6.8c15.3,0,16.7,5.6,16.7,21.7v60.2C626.6,322.8,627.9,324.1,629.4,324.2z"/>
	<path class="st0" d="M733.5,188.3v33.8l-1.1-0.2c-5.8-0.8-11.8-1.2-17.7-1.3c-28.2,0-43.2,15.7-43.2,45.4v14.2
		c0,14.4,3.6,25.6,10.7,33.3c7.3,8,18.3,12.1,32.5,12.1c12.4-0.1,24.9-1.7,37-4.8c4.1-1.1,4.2-1.9,4.2-3.8V188.2
		c0-1.5-1.2-2.7-2.7-2.7h-17C734.7,185.6,733.5,186.8,733.5,188.3z M733.5,306.2l-0.8,0.1c-5.7,0.9-11.5,1.3-17.3,1.3
		c-0.2,0-0.4,0-0.7,0c-18.4,0-20.8-14.7-20.8-27.5V266c0-12.8,2.4-27.5,20.8-27.5c6,0.1,12,0.5,17.9,1.3l0.9,0.1L733.5,306.2
		L733.5,306.2z"/>
	<path class="st0" d="M865.1,266.5c0-28.4-16.5-46-43-46c-27.2,0-43.4,17.2-43.4,46v13.7c0,43.2,36.5,45.4,43.8,45.4
		c17,0,24.3-1,35.7-3.1c2.7-0.4,3.1-1.2,3.1-3.8v-12.2c0-1.6-1.6-1.8-2.3-1.8h-0.5c-11.3,1.2-22.7,1.8-34,1.9
		c-20.9,0-23.2-17.1-23.2-24.5v-1.6h61.3c0.9,0,1.5-0.2,1.9-0.6c0.5-0.5,0.8-1.5,0.7-3L865.1,266.5z M842.6,265h-41.2v-1.7
		c0-14.5,8.2-23.8,20.8-23.8c12.4,0,20.4,9.3,20.4,23.8V265z"/>
	<path class="st0" d="M888.2,224.6v96.8c0,1.6,1.2,2.8,2.7,2.9h17c1.5-0.1,2.7-1.4,2.7-2.9v-75l0.5-0.3c8.9-4.7,16.9-6.8,26-6.8
		c1.5,0,2.8-1.2,2.9-2.8v-13.2c0-1.5-1.2-2.7-2.7-2.7h-0.1c-9.2,0-18.4,3.1-25.7,8.7l-1.6,1.2v-5.9c0-1.5-1.2-2.7-2.7-2.7h-16.1
		C889.4,221.9,888.2,223.1,888.2,224.6z"/>
</g>
<g>
	<path class="st1" d="M205.7,150.6c-30.4,0-55.1,24.6-55.1,55v0.1v82.4h24.6v-82.7c0.8-16.5,14.1-29.6,30.6-30.2h44.7v-24.6H205.7
		L205.7,150.6z"/>
	<polygon class="st1" points="266.4,150.6 263.5,150.6 263.5,153.4 263.5,172.3 263.5,175.2 266.4,175.2 285.2,175.2 288.1,175.2 
		288.1,172.3 288.1,153.4 288.1,150.6 285.2,150.6 	"/>
	<polygon class="st1" points="304,225.8 301.1,225.8 301.1,228.7 301.1,247.5 301.1,250.4 304,250.4 322.8,250.4 325.7,250.4 
		325.7,247.5 325.7,228.7 325.7,225.8 322.8,225.8 	"/>
	<polygon class="st1" points="322.8,150.6 304,150.6 301.1,150.6 301.1,153.4 301.1,172.3 301.1,175.2 304,175.2 322.8,175.2 
		325.7,175.2 325.7,172.3 325.7,153.4 325.7,150.6 	"/>
	<polygon class="st1" points="304,188.2 301.1,188.2 301.1,191.1 301.1,209.9 301.1,212.8 304,212.8 322.8,212.8 325.7,212.8 
		325.7,209.9 325.7,191.1 325.7,188.2 322.8,188.2 	"/>
	<polygon class="st1" points="304,263.5 301.1,263.5 301.1,266.4 301.1,285.2 301.1,288.1 304,288.1 322.8,288.1 325.7,288.1 
		325.7,285.2 325.7,266.4 325.7,263.5 322.8,263.5 	"/>
	<polygon class="st1" points="304,301.1 301.1,301.1 301.1,304 301.1,322.8 301.1,325.7 304,325.7 322.8,325.7 325.7,325.7 
		325.7,322.8 325.7,304 325.7,301.1 322.8,301.1 	"/>
	<polygon class="st1" points="266.4,301.1 263.5,301.1 263.5,304 263.5,322.8 263.5,325.7 266.4,325.7 285.2,325.7 288.1,325.7 
		288.1,322.8 288.1,304 288.1,301.1 285.2,301.1 	"/>
	<polygon class="st1" points="228.7,301.1 225.8,301.1 225.8,304 225.8,322.8 225.8,325.7 228.7,325.7 247.5,325.7 250.4,325.7 
		250.4,322.8 250.4,304 250.4,301.1 247.5,301.1 	"/>
	<polygon class="st1" points="191.1,301.1 188.2,301.1 188.2,304 188.2,322.8 188.2,325.7 191.1,325.7 209.9,325.7 212.8,325.7 
		212.8,322.8 212.8,304 212.8,301.1 209.9,301.1 	"/>
	<polygon class="st1" points="153.4,301.1 150.6,301.1 150.6,304 150.6,322.8 150.6,325.7 153.4,325.7 172.3,325.7 175.2,325.7 
		175.2,322.8 175.2,304 175.2,301.1 172.3,301.1 	"/>
	<path class="st1" d="M205.7,150.6c-30.4,0-55.1,24.6-55.1,55v0.1v82.4h24.6v-82.7c0.8-16.5,14.1-29.6,30.6-30.2h44.7v-24.6H205.7
		L205.7,150.6z"/>
	<polygon class="st1" points="266.4,150.6 263.5,150.6 263.5,153.4 263.5,172.3 263.5,175.2 266.4,175.2 285.2,175.2 288.1,175.2 
		288.1,172.3 288.1,153.4 288.1,150.6 285.2,150.6 	"/>
	<polygon class="st1" points="304,225.8 301.1,225.8 301.1,228.7 301.1,247.5 301.1,250.4 304,250.4 322.8,250.4 325.7,250.4 
		325.7,247.5 325.7,228.7 325.7,225.8 322.8,225.8 	"/>
	<polygon class="st1" points="322.8,150.6 304,150.6 301.1,150.6 301.1,153.4 301.1,172.3 301.1,175.2 304,175.2 322.8,175.2 
		325.7,175.2 325.7,172.3 325.7,153.4 325.7,150.6 	"/>
	<polygon class="st1" points="304,188.2 301.1,188.2 301.1,191.1 301.1,209.9 301.1,212.8 304,212.8 322.8,212.8 325.7,212.8 
		325.7,209.9 325.7,191.1 325.7,188.2 322.8,188.2 	"/>
	<polygon class="st1" points="304,263.5 301.1,263.5 301.1,266.4 301.1,285.2 301.1,288.1 304,288.1 322.8,288.1 325.7,288.1 
		325.7,285.2 325.7,266.4 325.7,263.5 322.8,263.5 	"/>
	<polygon class="st1" points="304,301.1 301.1,301.1 301.1,304 301.1,322.8 301.1,325.7 304,325.7 322.8,325.7 325.7,325.7 
		325.7,322.8 325.7,304 325.7,301.1 322.8,301.1 	"/>
	<polygon class="st1" points="266.4,301.1 263.5,301.1 263.5,304 263.5,322.8 263.5,325.7 266.4,325.7 285.2,325.7 288.1,325.7 
		288.1,322.8 288.1,304 288.1,301.1 285.2,301.1 	"/>
	<polygon class="st1" points="228.7,301.1 225.8,301.1 225.8,304 225.8,322.8 225.8,325.7 228.7,325.7 247.5,325.7 250.4,325.7 
		250.4,322.8 250.4,304 250.4,301.1 247.5,301.1 	"/>
	<polygon class="st1" points="191.1,301.1 188.2,301.1 188.2,304 188.2,322.8 188.2,325.7 191.1,325.7 209.9,325.7 212.8,325.7 
		212.8,322.8 212.8,304 212.8,301.1 209.9,301.1 	"/>
	<polygon class="st1" points="153.4,301.1 150.6,301.1 150.6,304 150.6,322.8 150.6,325.7 153.4,325.7 172.3,325.7 175.2,325.7 
		175.2,322.8 175.2,304 175.2,301.1 172.3,301.1 	"/>
</g>
</svg>
