<svg xmlns="http://www.w3.org/2000/svg" viewBox="0 0 1029.53 1739.16"><defs><style>.a{fill:#23cbff;}.b{fill:#242a55;}.c{fill:#ffda5d;}</style></defs><path class="a" d="M292.57,1461.12c-25.64-89.41,24.85-162.86,114.61-252.4l185.37-184.9c61.8-61.64,79.82-118.05,64.26-201.2l-.78-4.16,3-3,98.21-98,7.29-7.27,5.25,8.86C772.66,724,841,839.86,860.41,907.6l.67,2.4c27.36,108.83-1.38,198.11-93.15,289.65l-185.37,184.9c-38.88,38.79-49.35,58.27-43.08,80.15,4.2,14.66,16.3,31.45,39.24,54.43l57.55,57.7a48.27,48.27,0,0,1,12.52,20.38,33.58,33.58,0,0,1-8.91,33.85l-89.62,89.39a35.81,35.81,0,0,1-27.75,10.72c-9.93-.59-19.77-5.3-27.7-13.24L425,1648C348.46,1571.2,307.61,1513.58,292.57,1461.12Z"/><path class="b" d="M852.72,909.81c-19.36-67.54-89.84-186.63-89.84-186.63l-98.21,98c15.83,84.62-1.41,143.45-66.47,208.35l-185.37,184.9c-94.92,94.68-135.67,163.95-112.57,244.53,15.14,52.81,57.7,110.47,130.42,183.38l69.8,70c13.47,13.5,31.86,14.75,44.13,2.51l89.62-89.39c7.49-7.48,9.51-16.79,6.87-26a40,40,0,0,0-10.5-16.94l-57.55-57.7c-23.13-23.18-36.51-41.32-41.26-57.88-8.07-28.16,8.8-51.78,45.12-88L762.28,1194c84.71-84.49,119.14-170.27,91.09-281.88-.21-.76-.43-1.53-.65-2.3m15.38-4.42.7,2.49c28.17,112-1.22,203.68-95.22,297.44l-185.37,184.9c-36.36,36.26-46.33,53.83-41,72.27,3.76,13.11,15.58,29.31,37.21,51l57.55,57.7A56.15,56.15,0,0,1,656.48,1595c4.36,15.21.37,30.42-11,41.71l-89.62,89.39A43.74,43.74,0,0,1,522,1739.16c-11.89-.72-23.57-6.25-32.88-15.58l-69.8-70c-77.56-77.76-119-136.44-134.47-190.27-26.63-92.88,27.37-171.22,116.65-260.27l185.37-184.9c60.42-60.27,77.24-112.87,62-194.07l-1.55-8.31,6-6,98.21-98,14.58-14.54L776.65,715C779.57,720,848.39,836.66,868.1,905.39Z"/><path class="c" d="M541.91,843.5c-52.43-32.78-95.31-95-143.37-208L277.87,351.66c-25.48-59.92-55.23-98.14-96.46-123.9-25.81-16.14-57.3-27.77-96.26-35.55L81,191.38l-1.66-3.88L15.42,37.13l-4-9.47,10.18-1.57c6.77-1,166.82-25.34,248.36-15.95,51.29,7,94.6,21.94,132.56,45.66,59.8,37.38,104.91,95.37,142,182.51L665.12,522.13c16.3,38.31,30.15,64.41,48.85,76.1,20.17,12.6,48.68,9.12,98.42-12l88.34-37.56c16-6.8,32-6.43,43.89,1a38.54,38.54,0,0,1,15.1,18.11L1018.06,705a40.8,40.8,0,0,1-.45,33.87c-4.86,10.28-14.07,18.72-25.91,23.75L884.57,808.14C715.81,879.89,616.54,890.14,541.91,843.5Z"/><path class="b" d="M398.25,62.59C361.86,39.84,319.36,25,269,18.09,187.6,8.71,22.78,34,22.78,34L86.71,184.37c39,7.78,71.39,19.38,98.94,36.6,42.76,26.72,73.82,67,99.58,127.56L405.9,632.34C449.45,734.78,491,802.25,546.15,836.71c74.36,46.47,173.39,32.9,335.29-35.93l107.13-45.55c20.67-8.79,30.12-28.34,22.13-47.13L952.36,570.89a30.78,30.78,0,0,0-12-14.45c-9.73-6.09-22.94-6.21-36.52-.44l-88.34,37.56C764,615.48,733.1,619.62,709.73,605c-20.07-12.54-34.61-38.93-52-79.75L537.09,241.44C502.62,160.37,459,100.53,398.25,62.59M406.72,49h0C468,87.31,514.1,146.47,551.82,235.18L672.49,519c15.24,35.86,28.86,61.9,45.72,72.45,17.66,11,44,7.38,91-12.61l88.34-37.56c18.43-7.84,37.11-7.26,51.26,1.59a47,47,0,0,1,18.22,21.76l58.34,137.21a48.68,48.68,0,0,1-.58,40.42c-5.7,12.06-16.36,21.89-30,27.69L887.7,815.51c-171.48,72.9-272.89,83-350,34.77-53.93-33.71-97.74-97-146.49-211.68L270.5,354.79c-24.79-58.32-53.58-95.41-93.33-120.25-25-15.61-55.59-26.89-93.59-34.48L75.3,198.4,72,190.63,8.06,40.26,0,21.31l20.36-3.12c6.81-1.05,167.89-25.51,250.49-16C323.45,9.38,367.79,24.68,406.72,49Z"/></svg>